<?xml version="1.0" encoding="utf-8"?>
<!DOCTYPE svg PUBLIC "-//W3C//DTD SVG 1.1//EN" "http://www.w3.org/Graphics/SVG/1.1/DTD/svg11.dtd">
<svg xmlns="http://www.w3.org/2000/svg" xmlns:xlink="http://www.w3.org/1999/xlink" version="1.1" baseProfile="full" width="40" height="40" viewBox="0 0 147.33 90.50" enable-background="new 0 0 147.33 90.50" xml:space="preserve">
	<path fill="#FFFFFF" fill-opacity="1" stroke-width="10" stroke-linejoin="round" stroke="#FF0000" stroke-opacity="1" d="M 22.7813,5.08328L 119.573,5L 142.333,85.5L 5,85.5L 22.7813,5.08328 Z "/>
	<g>
		<path fill="#000000" fill-opacity="1" stroke-width="2" stroke-linejoin="round" stroke="#000000" stroke-opacity="1" d="M 44.1021,65.5642C 39.7682,65.5642 36.2978,64.0033 33.6908,60.8817C 31.0838,57.76 29.7803,53.6993 29.7803,48.6997C 29.7803,43.3254 31.1081,39.0387 33.7637,35.8396C 36.4194,32.6406 40.0247,31.041 44.5798,31.041C 48.8031,31.041 52.2039,32.5944 54.7822,35.701C 57.3604,38.8077 58.6495,42.8684 58.6495,47.8831C 58.6495,53.3322 57.3283,57.6414 54.686,60.8105C 52.0436,63.9796 48.5157,65.5642 44.1021,65.5642 Z M 44.3211,35.8359C 41.5261,35.8359 39.253,36.9834 37.5018,39.2785C 35.7505,41.5735 34.8749,44.5941 34.8749,48.3401C 34.8749,52.0711 35.7262,55.0753 37.4288,57.3529C 39.1314,59.6305 41.3581,60.7693 44.1088,60.7693C 47.032,60.7693 49.3371,59.6842 51.0243,57.514C 52.7114,55.3438 53.555,52.3083 53.555,48.4075C 53.555,44.3968 52.7357,41.2988 51.0972,39.1136C 49.4587,36.9285 47.2,35.8359 44.3211,35.8359 Z "/>
		<path fill="#000000" fill-opacity="1" stroke-width="2" stroke-linejoin="round" stroke="#000000" stroke-opacity="1" d="M 76.3677,65.5642C 72.0338,65.5642 68.5634,64.0033 65.9564,60.8817C 63.3494,57.76 62.0459,53.6993 62.0459,48.6997C 62.0459,43.3254 63.3737,39.0387 66.0294,35.8396C 68.685,32.6406 72.2903,31.041 76.8454,31.041C 81.0687,31.041 84.4695,32.5944 87.0478,35.701C 89.626,38.8077 90.9151,42.8684 90.9151,47.8831C 90.9151,53.3322 89.5939,57.6414 86.9516,60.8105C 84.3092,63.9796 80.7813,65.5642 76.3677,65.5642 Z M 76.5867,35.8359C 73.7917,35.8359 71.5186,36.9834 69.7674,39.2785C 68.0161,41.5735 67.1405,44.5941 67.1405,48.3401C 67.1405,52.0711 67.9918,55.0753 69.6944,57.3529C 71.397,59.6305 73.6237,60.7693 76.3744,60.7693C 79.2976,60.7693 81.6027,59.6842 83.2899,57.514C 84.977,55.3438 85.8206,52.3083 85.8206,48.4075C 85.8206,44.3968 85.0013,41.2988 83.3628,39.1136C 81.7243,36.9285 79.4656,35.8359 76.5867,35.8359 Z "/>
		<path fill="#000000" fill-opacity="1" stroke-width="2" stroke-linejoin="round" stroke="#000000" stroke-opacity="1" d="M 94.7361,63.6612L 94.7361,57.8924C 95.196,58.4118 95.7444,58.88 96.3812,59.2971C 97.018,59.7141 97.6935,60.065 98.4077,60.3497C 99.122,60.6344 99.8351,60.8554 100.547,61.0128C 101.259,61.1701 101.916,61.2488 102.517,61.2488C 104.613,61.2488 106.176,60.8367 107.204,60.0126C 108.232,59.1885 108.746,57.9948 108.746,56.4314C 108.746,55.6372 108.575,54.9492 108.232,54.3674C 107.889,53.7855 107.411,53.2536 106.796,52.7716C 106.181,52.2896 105.459,51.8276 104.63,51.3855C 103.801,50.9435 102.911,50.4828 101.96,50.0033C 100.943,49.3989 99.9943,48.7859 99.1142,48.164C 98.2342,47.5421 97.4691,46.8542 96.819,46.0999C 96.1689,45.3457 95.6592,44.4954 95.29,43.5489C 94.9207,42.6024 94.7361,41.4924 94.7361,40.2188C 94.7361,38.6504 95.0512,37.2881 95.6814,36.1318C 96.3115,34.9756 97.1441,34.0204 98.1789,33.2661C 99.2137,32.512 100.39,31.9525 101.708,31.5879C 103.026,31.2234 104.37,31.041 105.741,31.041C 108.863,31.041 111.139,31.4406 112.567,32.2397L 112.567,37.7539C 110.86,36.1555 108.664,35.3564 105.98,35.3564C 105.237,35.3564 104.498,35.4388 103.764,35.6037C 103.03,35.7685 102.372,36.042 101.791,36.424C 101.209,36.8061 100.737,37.2956 100.375,37.8925C 100.012,38.4893 99.8306,39.2098 99.8306,40.0539C 99.8306,40.7981 99.97,41.4424 100.249,41.9868C 100.527,42.5313 100.935,43.0282 101.472,43.4778C 102.01,43.9273 102.666,44.3656 103.443,44.7926C 104.219,45.2196 105.115,45.6829 106.133,46.1824C 107.181,46.7867 108.169,47.4236 109.098,48.0928C 110.026,48.7621 110.843,49.5001 111.549,50.3067C 112.254,51.1134 112.813,52.0099 113.224,52.9963C 113.635,53.9828 113.841,55.1053 113.841,56.364C 113.841,58.0572 113.536,59.4856 112.925,60.6494C 112.315,61.8131 111.492,62.7596 110.458,63.4889C 109.423,64.2181 108.233,64.7463 106.889,65.0735C 105.544,65.4006 104.123,65.5642 102.623,65.5642C 102.124,65.5642 101.51,65.5205 100.783,65.4331C 100.055,65.3457 99.3099,65.2195 98.547,65.0547C 97.7842,64.8899 97.0622,64.6901 96.3812,64.4554C 95.7001,64.2206 95.1518,63.9559 94.7361,63.6612 Z "/>
	</g>
</svg>
