<?xml version="1.0" encoding="utf-8"?>
<!DOCTYPE svg PUBLIC "-//W3C//DTD SVG 1.1//EN" "http://www.w3.org/Graphics/SVG/1.1/DTD/svg11.dtd">
<svg xmlns="http://www.w3.org/2000/svg" xmlns:xlink="http://www.w3.org/1999/xlink" version="1.1" baseProfile="full" width="40" height="40" viewBox="0 0 64.00 64.00" enable-background="new 0 0 64.00 64.00" xml:space="preserve">
	<line fill="none" stroke-width="1.95" stroke-linejoin="round" stroke="#230FD2" stroke-opacity="1" x1="8" y1="0" x2="8" y2="64"/>
	<line fill="none" stroke-width="1.95" stroke-linejoin="round" stroke="#230FD2" stroke-opacity="1" x1="20" y1="0" x2="20" y2="64"/>
	<line fill="none" stroke-width="1.95" stroke-linejoin="round" stroke="#230FD2" stroke-opacity="1" x1="32" y1="0" x2="32" y2="64"/>
	<line fill="none" stroke-width="1.95" stroke-linejoin="round" stroke="#230FD2" stroke-opacity="1" x1="44" y1="0" x2="44" y2="64"/>
	<line fill="none" stroke-width="1.95" stroke-linejoin="round" stroke="#230FD2" stroke-opacity="1" x1="56" y1="0" x2="56" y2="64"/>
	<line fill="none" stroke-width="1.95" stroke-linejoin="round" stroke="#230FD2" stroke-opacity="1" x1="64" y1="56" x2="0" y2="56"/>
	<line fill="none" stroke-width="1.95" stroke-linejoin="round" stroke="#230FD2" stroke-opacity="1" x1="64" y1="44" x2="0" y2="44"/>
	<line fill="none" stroke-width="1.95" stroke-linejoin="round" stroke="#230FD2" stroke-opacity="1" x1="0" y1="32" x2="64" y2="32"/>
	<line fill="none" stroke-width="1.95" stroke-linejoin="round" stroke="#230FD2" stroke-opacity="1" x1="64" y1="20" x2="0" y2="20"/>
	<line fill="none" stroke-width="1.95" stroke-linejoin="round" stroke="#230FD2" stroke-opacity="1" x1="0" y1="8" x2="64" y2="8"/>
	<g>
		<path fill="#000000" fill-opacity="1" stroke-width="1.95" stroke-linejoin="round" d="M 49.3595,36.3083L 49.3595,43.7C 49.3595,44.6833 49.2607,45.4694 49.063,46.0583C 48.8653,46.6472 48.5008,47.1778 47.9697,47.65C 47.4385,48.1222 46.7569,48.5778 45.9247,49.0167C 43.4814,50.2389 41.1281,51.1306 38.8647,51.6917C 36.6014,52.2528 34.1359,52.5333 31.4683,52.5333C 28.3581,52.5333 25.5253,52.0819 22.9698,51.1792C 20.4144,50.2764 18.2351,48.9667 16.4321,47.25C 14.6292,45.5333 13.2452,43.4514 12.2803,41.0042C 11.3153,38.5569 10.8328,35.8222 10.8328,32.8C 10.8328,29.8333 11.3006,27.1181 12.236,24.6542C 13.1714,22.1903 14.5495,20.0986 16.3702,18.3792C 18.1909,16.6597 20.4055,15.3444 23.0141,14.4333C 25.6227,13.5222 28.5794,13.0667 31.8844,13.0667C 34.5992,13.0667 37.0042,13.4069 39.0993,14.0875C 41.1944,14.7681 42.8942,15.625 44.1984,16.6583C 45.5027,17.6917 46.4854,18.7847 47.1464,19.9375C 47.8074,21.0903 48.1379,22.1139 48.1379,23.0083C 48.1379,23.975 47.7616,24.7986 47.0092,25.4792C 46.2567,26.1597 45.3552,26.5 44.3047,26.5C 43.7263,26.5 43.1701,26.3708 42.636,26.1125C 42.1018,25.8542 41.6548,25.4917 41.2948,25.025C 40.262,23.5306 39.39,22.4014 38.6788,21.6375C 37.9677,20.8736 37.0071,20.2319 35.7973,19.7125C 34.5874,19.1931 33.0441,18.9333 31.1674,18.9333C 29.2375,18.9333 27.5127,19.2444 25.993,19.8667C 24.4733,20.4889 23.1749,21.3903 22.0978,22.5708C 21.0208,23.7514 20.196,25.1986 19.6235,26.9125C 19.051,28.6264 18.7648,30.5222 18.7648,32.6C 18.7648,37.1167 19.8758,40.5903 22.0978,43.0208C 24.3198,45.4514 27.4168,46.6667 31.3887,46.6667C 33.3245,46.6667 35.1407,46.4278 36.8375,45.95C 38.5342,45.4722 40.2531,44.7917 41.9941,43.9083L 41.9941,37.6L 35.5317,37.6C 33.9736,37.6 32.7962,37.3806 31.9995,36.9417C 31.2028,36.5028 30.8044,35.7583 30.8044,34.7083C 30.8044,33.8472 31.1319,33.1361 31.787,32.575C 32.4421,32.0139 33.3333,31.7333 34.4605,31.7333L 43.7912,31.7333C 44.9362,31.7333 45.9055,31.8292 46.6993,32.0208C 47.4931,32.2125 48.1349,32.6417 48.6248,33.3083C 49.1146,33.975 49.3595,34.975 49.3595,36.3083 Z "/>
	</g>
</svg>
